<svg width="1920" height="231" viewBox="0 0 1920 231" fill="none" xmlns="http://www.w3.org/2000/svg">
<g clip-path="url(#clip0_29_94)">
<rect width="1920" height="231" fill="white"/>
<path d="M0 231H1920V0H1048.38H0V231Z" fill="#203158"/>
<path d="M-5 164C-5 164 300.561 199.074 492.861 201.897C813.363 206.602 1009.1 121.052 1329.5 129.601C1569.65 136.008 1922 202.5 1922 202.5" stroke="#11A048" stroke-width="10"/>
<path d="M-4 186.5C-4 186.5 298.938 218.076 490.837 220.818C810.672 225.389 1006 142.279 1325.73 150.584C1565.38 156.809 1925.5 223 1925.5 223" stroke="#FFF101" stroke-width="20"/>
<path d="M-5.5 146.5C-5.5 146.5 304.162 184.561 500.069 187.768C826.584 193.115 1006.43 104.027 1332.84 113.741C1577.49 121.022 1925.5 184.5 1925.5 184.5" stroke="#11A048" stroke-width="10"/>
<path d="M400.584 54H412.344C416.371 54 419.371 54.5867 421.344 55.76C423.318 56.9067 424.304 58.9733 424.304 61.96C424.304 65.2667 423.104 67.5467 420.704 68.8C418.464 69.9467 415.331 70.52 411.304 70.52H410.984V81.24H415.984V82H400.584V81.24H403.184V54.76H400.584V54ZM410.984 54.76V69.76H411.824C413.424 69.76 414.531 69.2133 415.144 68.12C415.758 67.0267 416.064 65.2533 416.064 62.8V60.88C416.064 58.6133 415.771 57.0267 415.184 56.12C414.624 55.2133 413.584 54.76 412.064 54.76H410.984ZM426.176 54H446.976L447.376 61.92H446.656C445.536 59.2267 444.363 57.3867 443.136 56.4C441.909 55.3867 440.109 54.88 437.736 54.88H436.336V67.24H437.696C438.949 67.24 440.003 66.7733 440.856 65.84C441.709 64.88 442.309 63.6 442.656 62H443.256V73.84H442.576C442.096 71.84 441.443 70.4133 440.616 69.56C439.816 68.7067 438.709 68.28 437.296 68.28H436.336V81.12H437.856C440.309 81.12 442.389 80.3867 444.096 78.92C445.829 77.4533 447.016 75.5733 447.656 73.28H448.456L448.136 82H426.176V81.12H428.536V54.88H426.176V54ZM462.906 81.56C464.24 81.56 465.413 81.2 466.426 80.48C467.466 79.76 467.986 78.68 467.986 77.24C467.986 75.7733 467.426 74.6533 466.306 73.88C465.213 73.1067 463.64 72.44 461.586 71.88C459.56 71.2933 458.08 70.7867 457.146 70.36C456.24 69.9333 455.373 69.3733 454.546 68.68C452.893 67.2933 452.066 65.1467 452.066 62.24C452.066 59.8667 452.906 57.8267 454.586 56.12C456.293 54.4133 458.613 53.56 461.546 53.56C462.96 53.56 464.426 53.7733 465.946 54.2C467.493 54.6 468.453 54.8 468.826 54.8C469.2 54.8 469.533 54.5333 469.826 54H470.266L470.546 62.08H469.906C468.626 59.76 467.28 57.9067 465.866 56.52C464.48 55.1067 462.96 54.4 461.306 54.4C459.68 54.4 458.413 54.7867 457.506 55.56C456.6 56.3067 456.146 57.32 456.146 58.6C456.146 59.8533 456.68 60.8267 457.746 61.52C458.84 62.1867 460.173 62.7333 461.746 63.16C463.32 63.5867 464.346 63.88 464.826 64.04C465.333 64.2 465.946 64.4267 466.666 64.72C467.413 64.9867 468.013 65.28 468.466 65.6C468.946 65.8933 469.44 66.28 469.946 66.76C470.48 67.2133 470.893 67.72 471.186 68.28C471.906 69.56 472.266 71.08 472.266 72.84C472.266 75.72 471.36 78.04 469.546 79.8C467.76 81.5333 465.4 82.4 462.466 82.4C460.946 82.4 459.2 82.2 457.226 81.8C455.28 81.4 454.2 81.2 453.986 81.2C453.613 81.2 453.253 81.6 452.906 82.4H452.346L451.946 72.88H452.626C453.8 75.2 455.293 77.2267 457.106 78.96C458.946 80.6933 460.88 81.56 462.906 81.56ZM475.14 68.44C475.14 63.7733 476.313 60.1333 478.66 57.52C481.033 54.88 484.38 53.56 488.7 53.56C493.02 53.56 496.273 54.8133 498.46 57.32C500.673 59.8 501.78 63.3333 501.78 67.92C501.78 76.64 497.993 81.3467 490.42 82.04V82.32C491.94 82.48 493.06 82.8933 493.78 83.56C494.527 84.2267 495.087 85.1067 495.46 86.2C495.833 87.32 496.167 88.08 496.46 88.48C496.753 88.88 497.193 89.08 497.78 89.08C498.793 89.08 499.393 88.0133 499.58 85.88L500.46 85.96C500.407 87.72 499.86 89.0667 498.82 90C497.78 90.9333 496.327 91.4 494.46 91.4C492.62 91.4 491.193 90.9333 490.18 90C489.167 89.0933 488.393 87.7467 487.86 85.96C487.513 84.8667 487.22 84.16 486.98 83.84C486.74 83.52 486.433 83.36 486.06 83.36C485.313 83.36 484.327 83.9067 483.1 85L482.54 84.36C483.607 83.2933 484.82 82.64 486.18 82.4V82.16C482.553 81.7867 479.807 80.4133 477.94 78.04C476.073 75.6667 475.14 72.4667 475.14 68.44ZM493.54 69.64V66.68C493.54 61.8 493.3 58.72 492.82 57.44C492.287 55.9733 491.527 55.0667 490.54 54.72C489.98 54.5067 489.3 54.4 488.5 54.4C487.7 54.4 487.007 54.5067 486.42 54.72C485.86 54.9333 485.393 55.3067 485.02 55.84C484.647 56.3733 484.34 56.9333 484.1 57.52C483.887 58.1067 483.713 58.9333 483.58 60C483.42 61.5467 483.34 63.8267 483.34 66.84V69.72C483.34 72.9733 483.46 75.2933 483.7 76.68C483.967 78.04 484.287 79.0133 484.66 79.6C485.487 80.9067 486.767 81.56 488.5 81.56C490.607 81.56 491.967 80.68 492.58 78.92C493.22 77.1333 493.54 74.04 493.54 69.64ZM513.871 73.48C513.871 75.9333 514.285 77.8133 515.111 79.12C515.965 80.4267 517.485 81.08 519.671 81.08C521.858 81.08 523.538 80.4 524.711 79.04C525.885 77.68 526.471 75.6133 526.471 72.84V54.76H523.871V54H529.711V54.76H527.511V72.56C527.511 75.8667 526.778 78.3333 525.311 79.96C523.845 81.5867 521.245 82.4 517.511 82.4C513.805 82.4 510.965 81.6267 508.991 80.08C507.045 78.5333 506.071 75.88 506.071 72.12V54.76H503.871V54H516.471V54.76H513.871V73.48ZM531.336 54H543.536V54.76H541.336V81.24H543.536V82H531.336V81.24H533.536V54.76H531.336V54ZM557.555 81.56C558.888 81.56 560.061 81.2 561.075 80.48C562.115 79.76 562.635 78.68 562.635 77.24C562.635 75.7733 562.075 74.6533 560.955 73.88C559.861 73.1067 558.288 72.44 556.235 71.88C554.208 71.2933 552.728 70.7867 551.795 70.36C550.888 69.9333 550.021 69.3733 549.195 68.68C547.541 67.2933 546.715 65.1467 546.715 62.24C546.715 59.8667 547.555 57.8267 549.235 56.12C550.941 54.4133 553.261 53.56 556.195 53.56C557.608 53.56 559.075 53.7733 560.595 54.2C562.141 54.6 563.101 54.8 563.475 54.8C563.848 54.8 564.181 54.5333 564.475 54H564.915L565.195 62.08H564.555C563.275 59.76 561.928 57.9067 560.515 56.52C559.128 55.1067 557.608 54.4 555.955 54.4C554.328 54.4 553.061 54.7867 552.155 55.56C551.248 56.3067 550.795 57.32 550.795 58.6C550.795 59.8533 551.328 60.8267 552.395 61.52C553.488 62.1867 554.821 62.7333 556.395 63.16C557.968 63.5867 558.995 63.88 559.475 64.04C559.981 64.2 560.595 64.4267 561.315 64.72C562.061 64.9867 562.661 65.28 563.115 65.6C563.595 65.8933 564.088 66.28 564.595 66.76C565.128 67.2133 565.541 67.72 565.835 68.28C566.555 69.56 566.915 71.08 566.915 72.84C566.915 75.72 566.008 78.04 564.195 79.8C562.408 81.5333 560.048 82.4 557.115 82.4C555.595 82.4 553.848 82.2 551.875 81.8C549.928 81.4 548.848 81.2 548.635 81.2C548.261 81.2 547.901 81.6 547.555 82.4H546.995L546.595 72.88H547.275C548.448 75.2 549.941 77.2267 551.755 78.96C553.595 80.6933 555.528 81.56 557.555 81.56ZM584.218 81.24L581.298 72.6H573.378L570.298 81.24H573.298V82H567.178V81.24H569.058L579.258 53.76H582.538L592.618 81.24H594.458V82H581.378V81.24H584.218ZM577.497 61.24L573.738 71.72H580.978L577.497 61.24ZM630.458 67.52C630.458 73.0133 628.912 76.84 625.818 79C622.965 81 619.045 82 614.058 82H602.738V81.24H605.378V54.76H602.738V54H615.098C620.218 54 624.058 55.0533 626.618 57.16C629.178 59.24 630.458 62.6933 630.458 67.52ZM613.178 81.24H614.698C617.392 81.24 619.312 80.2933 620.458 78.4C621.632 76.48 622.218 73.28 622.218 68.8V66.48C622.218 60.48 621.072 56.8667 618.778 55.64C617.685 55.0533 616.138 54.76 614.138 54.76H613.178V81.24ZM652.134 69.64V66.68C652.134 61.8 651.894 58.72 651.414 57.44C650.88 55.9733 650.12 55.0667 649.134 54.72C648.574 54.5067 647.894 54.4 647.094 54.4C646.294 54.4 645.6 54.5067 645.014 54.72C644.454 54.9333 643.987 55.3067 643.614 55.84C643.24 56.3733 642.934 56.9333 642.694 57.52C642.48 58.1067 642.307 58.9333 642.174 60C642.014 61.5467 641.934 63.8267 641.934 66.84V69.72C641.934 72.9733 642.054 75.2933 642.294 76.68C642.56 78.04 642.88 79.0133 643.254 79.6C644.08 80.9067 645.36 81.56 647.094 81.56C649.2 81.56 650.56 80.68 651.174 78.92C651.814 77.1333 652.134 74.04 652.134 69.64ZM647.014 82.4C642.56 82.4 639.227 81.2 637.014 78.8C634.827 76.3733 633.734 72.88 633.734 68.32C633.734 63.7333 634.907 60.1333 637.254 57.52C639.627 54.88 642.974 53.56 647.294 53.56C651.614 53.56 654.867 54.8133 657.054 57.32C659.267 59.8 660.374 63.3333 660.374 67.92C660.374 72.5067 659.254 76.0667 657.014 78.6C654.8 81.1333 651.467 82.4 647.014 82.4ZM319.58 129V101.08C320.674 100.947 321.874 100.853 323.18 100.8C324.514 100.72 325.887 100.68 327.3 100.68C329.62 100.68 331.594 101.053 333.22 101.8C334.847 102.52 336.087 103.52 336.94 104.8C337.794 106.08 338.22 107.547 338.22 109.2C338.22 111.2 337.727 112.893 336.74 114.28C335.754 115.667 334.38 116.733 332.62 117.48C330.86 118.2 328.82 118.56 326.5 118.56C325.38 118.56 324.34 118.52 323.38 118.44V129H319.58ZM326.98 115.4C329.354 115.4 331.194 114.867 332.5 113.8C333.807 112.733 334.46 111.307 334.46 109.52C334.46 107.787 333.834 106.413 332.58 105.4C331.327 104.387 329.54 103.88 327.22 103.88C326.5 103.88 325.82 103.893 325.18 103.92C324.54 103.947 323.94 103.987 323.38 104.04V115.2C323.807 115.253 324.327 115.307 324.94 115.36C325.554 115.387 326.234 115.4 326.98 115.4ZM359.68 129.4L356.56 121.4H343.6L340.48 129.32L337.24 128L348.2 101H352.36L363.16 128L359.68 129.4ZM344.8 118.2H355.32L350.08 104.76L344.8 118.2ZM383.479 129.48L379.999 121.88C379.119 119.987 378.012 118.64 376.679 117.84C375.345 117.04 373.639 116.64 371.559 116.64H370.959V129H367.159V101.08C368.572 100.947 369.919 100.853 371.199 100.8C372.505 100.72 373.892 100.68 375.359 100.68C378.772 100.68 381.332 101.373 383.039 102.76C384.772 104.147 385.639 105.933 385.639 108.12C385.639 110.067 385.052 111.64 383.879 112.84C382.732 114.013 381.065 114.893 378.879 115.48C379.599 115.8 380.239 116.187 380.799 116.64C381.359 117.067 381.892 117.653 382.399 118.4C382.932 119.12 383.465 120.067 383.999 121.24L387.039 127.8L383.479 129.48ZM370.959 113.44H375.359C377.279 113.44 378.839 113.013 380.039 112.16C381.239 111.307 381.839 110.08 381.839 108.48C381.839 107.147 381.279 106.053 380.159 105.2C379.039 104.32 377.439 103.88 375.359 103.88C374.452 103.88 373.639 103.893 372.919 103.92C372.199 103.947 371.545 103.987 370.959 104.04V113.44ZM403.246 129.48C401.219 129.48 399.393 129.107 397.766 128.36C396.166 127.587 394.806 126.547 393.686 125.24C392.566 123.907 391.713 122.36 391.126 120.6C390.539 118.84 390.246 116.96 390.246 114.96C390.246 112.213 390.766 109.76 391.806 107.6C392.846 105.413 394.326 103.693 396.246 102.44C398.193 101.16 400.526 100.52 403.246 100.52C405.273 100.52 407.086 100.893 408.686 101.64C410.313 102.387 411.686 103.427 412.806 104.76C413.926 106.093 414.779 107.627 415.366 109.36C415.979 111.093 416.286 112.96 416.286 114.96C416.286 117.04 415.993 118.853 415.406 120.4C414.819 121.92 414.126 123.24 413.326 124.36L416.886 126.32L415.166 129.48L411.286 126.6C410.299 127.427 409.139 128.12 407.806 128.68C406.473 129.213 404.953 129.48 403.246 129.48ZM403.166 126.2C404.259 126.2 405.246 126.067 406.126 125.8C407.033 125.533 407.806 125.2 408.446 124.8L405.406 122.88L407.006 119.96L410.606 122.56C411.246 121.52 411.699 120.387 411.966 119.16C412.259 117.907 412.406 116.507 412.406 114.96C412.406 113.52 412.193 112.133 411.766 110.8C411.366 109.467 410.766 108.28 409.966 107.24C409.193 106.173 408.233 105.333 407.086 104.72C405.966 104.107 404.686 103.8 403.246 103.8C401.326 103.8 399.686 104.293 398.326 105.28C396.966 106.24 395.926 107.56 395.206 109.24C394.486 110.92 394.126 112.827 394.126 114.96C394.126 116.4 394.326 117.8 394.726 119.16C395.126 120.493 395.713 121.693 396.486 122.76C397.259 123.827 398.206 124.667 399.326 125.28C400.446 125.893 401.726 126.2 403.166 126.2ZM432.036 129.48C428.809 129.48 426.276 128.52 424.436 126.6C422.596 124.68 421.676 121.933 421.676 118.36V101H425.476V117.76C425.476 120.427 426.022 122.493 427.116 123.96C428.209 125.427 429.849 126.16 432.036 126.16C434.302 126.16 435.996 125.453 437.116 124.04C438.236 122.6 438.796 120.507 438.796 117.76V101H442.476V118.2C442.476 120.547 442.036 122.573 441.156 124.28C440.302 125.96 439.089 127.253 437.516 128.16C435.969 129.04 434.142 129.48 432.036 129.48ZM449.073 129V101H465.873V104.28H452.873V112.8H464.073V116H452.873V125.72H465.873V129H449.073ZM488.652 129V104.36H480.052V101H501.052V104.36H492.452V129H488.652ZM505.049 129V101H521.849V104.28H508.849V112.8H520.049V116H508.849V125.72H521.849V129H505.049ZM537.997 129.48C535.57 129.48 533.423 128.907 531.557 127.76C529.69 126.587 528.237 124.933 527.197 122.8C526.157 120.64 525.637 118.08 525.637 115.12C525.637 112.267 526.157 109.747 527.197 107.56C528.263 105.347 529.757 103.627 531.677 102.4C533.623 101.147 535.89 100.52 538.477 100.52C539.81 100.52 541.023 100.653 542.117 100.92C543.21 101.16 544.237 101.507 545.197 101.96L544.037 105.16C543.21 104.76 542.357 104.44 541.477 104.2C540.623 103.96 539.61 103.84 538.437 103.84C536.73 103.84 535.197 104.28 533.837 105.16C532.503 106.04 531.45 107.307 530.677 108.96C529.903 110.613 529.517 112.613 529.517 114.96C529.517 117.2 529.89 119.16 530.637 120.84C531.41 122.52 532.463 123.827 533.797 124.76C535.157 125.693 536.703 126.16 538.437 126.16C539.743 126.16 540.877 126 541.837 125.68C542.797 125.36 543.73 124.947 544.637 124.44L545.797 127.6C544.81 128.133 543.677 128.587 542.397 128.96C541.143 129.307 539.677 129.48 537.997 129.48ZM550.987 129V101H556.027L568.387 124.28V101H571.987V129H567.027L554.587 105.88V129H550.987ZM590.79 129.48C588.71 129.48 586.857 129.107 585.23 128.36C583.603 127.587 582.217 126.547 581.07 125.24C579.95 123.907 579.083 122.36 578.47 120.6C577.883 118.84 577.59 116.96 577.59 114.96C577.59 112.213 578.11 109.76 579.15 107.6C580.217 105.413 581.737 103.693 583.71 102.44C585.683 101.16 588.043 100.52 590.79 100.52C592.843 100.52 594.683 100.893 596.31 101.64C597.963 102.387 599.363 103.427 600.51 104.76C601.657 106.093 602.523 107.627 603.11 109.36C603.723 111.093 604.03 112.96 604.03 114.96C604.03 116.96 603.723 118.84 603.11 120.6C602.523 122.36 601.657 123.907 600.51 125.24C599.363 126.547 597.977 127.587 596.35 128.36C594.723 129.107 592.87 129.48 590.79 129.48ZM590.79 126.2C592.843 126.2 594.563 125.707 595.95 124.72C597.337 123.733 598.377 122.4 599.07 120.72C599.79 119.013 600.15 117.093 600.15 114.96C600.15 113.52 599.937 112.133 599.51 110.8C599.083 109.467 598.47 108.28 597.67 107.24C596.87 106.173 595.883 105.333 594.71 104.72C593.563 104.107 592.257 103.8 590.79 103.8C588.843 103.8 587.163 104.293 585.75 105.28C584.363 106.267 583.297 107.6 582.55 109.28C581.83 110.96 581.47 112.853 581.47 114.96C581.47 116.4 581.67 117.8 582.07 119.16C582.497 120.493 583.11 121.693 583.91 122.76C584.71 123.827 585.683 124.667 586.83 125.28C588.003 125.893 589.323 126.2 590.79 126.2ZM609.62 129V101H613.42V125.6H626.26V129H609.62ZM640.048 129.48C637.968 129.48 636.114 129.107 634.488 128.36C632.861 127.587 631.474 126.547 630.328 125.24C629.208 123.907 628.341 122.36 627.728 120.6C627.141 118.84 626.848 116.96 626.848 114.96C626.848 112.213 627.368 109.76 628.408 107.6C629.474 105.413 630.994 103.693 632.968 102.44C634.941 101.16 637.301 100.52 640.048 100.52C642.101 100.52 643.941 100.893 645.568 101.64C647.221 102.387 648.621 103.427 649.768 104.76C650.914 106.093 651.781 107.627 652.368 109.36C652.981 111.093 653.288 112.96 653.288 114.96C653.288 116.96 652.981 118.84 652.368 120.6C651.781 122.36 650.914 123.907 649.768 125.24C648.621 126.547 647.234 127.587 645.608 128.36C643.981 129.107 642.128 129.48 640.048 129.48ZM640.048 126.2C642.101 126.2 643.821 125.707 645.208 124.72C646.594 123.733 647.634 122.4 648.328 120.72C649.048 119.013 649.408 117.093 649.408 114.96C649.408 113.52 649.194 112.133 648.768 110.8C648.341 109.467 647.728 108.28 646.928 107.24C646.128 106.173 645.141 105.333 643.968 104.72C642.821 104.107 641.514 103.8 640.048 103.8C638.101 103.8 636.421 104.293 635.008 105.28C633.621 106.267 632.554 107.6 631.808 109.28C631.088 110.96 630.728 112.853 630.728 114.96C630.728 116.4 630.928 117.8 631.328 119.16C631.754 120.493 632.368 121.693 633.168 122.76C633.968 123.827 634.941 124.667 636.088 125.28C637.261 125.893 638.581 126.2 640.048 126.2ZM636.968 99.64L635.728 97.2L643.288 92.2L644.968 95.56L636.968 99.64ZM668.437 129.48C666.277 129.48 664.357 128.92 662.677 127.8C660.997 126.68 659.677 125.093 658.717 123.04C657.757 120.96 657.277 118.52 657.277 115.72C657.277 112.733 657.784 110.107 658.797 107.84C659.811 105.547 661.264 103.76 663.157 102.48C665.077 101.173 667.384 100.52 670.077 100.52C671.811 100.52 673.357 100.733 674.717 101.16C676.077 101.587 677.357 102.133 678.557 102.8L677.157 105.96C676.037 105.347 674.891 104.84 673.717 104.44C672.571 104.04 671.291 103.84 669.877 103.84C668.197 103.84 666.704 104.293 665.397 105.2C664.091 106.08 663.051 107.387 662.277 109.12C661.531 110.853 661.157 112.973 661.157 115.48C661.157 117.72 661.504 119.64 662.197 121.24C662.891 122.813 663.851 124.027 665.077 124.88C666.304 125.733 667.717 126.16 669.317 126.16C670.811 126.16 672.131 125.853 673.277 125.24C674.451 124.6 675.371 123.947 676.037 123.28V117.16H670.237V114.16H679.637V129H676.277V126.2C675.344 127.027 674.211 127.787 672.877 128.48C671.544 129.147 670.064 129.48 668.437 129.48ZM685.83 129V101H689.63V129H685.83ZM707.606 129.48C705.179 129.48 703.033 128.907 701.166 127.76C699.299 126.587 697.846 124.933 696.806 122.8C695.766 120.64 695.246 118.08 695.246 115.12C695.246 112.267 695.766 109.747 696.806 107.56C697.873 105.347 699.366 103.627 701.286 102.4C703.233 101.147 705.499 100.52 708.086 100.52C709.419 100.52 710.633 100.653 711.726 100.92C712.819 101.16 713.846 101.507 714.806 101.96L713.646 105.16C712.819 104.76 711.966 104.44 711.086 104.2C710.233 103.96 709.219 103.84 708.046 103.84C706.339 103.84 704.806 104.28 703.446 105.16C702.113 106.04 701.059 107.307 700.286 108.96C699.513 110.613 699.126 112.613 699.126 114.96C699.126 117.2 699.499 119.16 700.246 120.84C701.019 122.52 702.073 123.827 703.406 124.76C704.766 125.693 706.313 126.16 708.046 126.16C709.353 126.16 710.486 126 711.446 125.68C712.406 125.36 713.339 124.947 714.246 124.44L715.406 127.6C714.419 128.133 713.286 128.587 712.006 128.96C710.753 129.307 709.286 129.48 707.606 129.48ZM730.79 129.48C728.71 129.48 726.857 129.107 725.23 128.36C723.603 127.587 722.217 126.547 721.07 125.24C719.95 123.907 719.083 122.36 718.47 120.6C717.883 118.84 717.59 116.96 717.59 114.96C717.59 112.213 718.11 109.76 719.15 107.6C720.217 105.413 721.737 103.693 723.71 102.44C725.683 101.16 728.043 100.52 730.79 100.52C732.843 100.52 734.683 100.893 736.31 101.64C737.963 102.387 739.363 103.427 740.51 104.76C741.657 106.093 742.523 107.627 743.11 109.36C743.723 111.093 744.03 112.96 744.03 114.96C744.03 116.96 743.723 118.84 743.11 120.6C742.523 122.36 741.657 123.907 740.51 125.24C739.363 126.547 737.977 127.587 736.35 128.36C734.723 129.107 732.87 129.48 730.79 129.48ZM730.79 126.2C732.843 126.2 734.563 125.707 735.95 124.72C737.337 123.733 738.377 122.4 739.07 120.72C739.79 119.013 740.15 117.093 740.15 114.96C740.15 113.52 739.937 112.133 739.51 110.8C739.083 109.467 738.47 108.28 737.67 107.24C736.87 106.173 735.883 105.333 734.71 104.72C733.563 104.107 732.257 103.8 730.79 103.8C728.843 103.8 727.163 104.293 725.75 105.28C724.363 106.267 723.297 107.6 722.55 109.28C721.83 110.96 721.47 112.853 721.47 114.96C721.47 116.4 721.67 117.8 722.07 119.16C722.497 120.493 723.11 121.693 723.91 122.76C724.71 123.827 725.683 124.667 726.83 125.28C728.003 125.893 729.323 126.2 730.79 126.2Z" fill="white"/>
</g>
<defs>
<clipPath id="clip0_29_94">
<rect width="1920" height="231" fill="white"/>
</clipPath>
</defs>
</svg>
